P2
# Shows the word "FEEP" (example from Netpbm main page on PGM)
8 2
15
15 14 13 12 11 10 9 8 
7 6 5 4 3 2 1 0

